<?xml version="1.0" encoding="utf-8"?>
<!-- Generator: Adobe Illustrator 22.1.0, SVG Export Plug-In . SVG Version: 6.00 Build 0)  -->
<svg version="1.1" id="Layer_1" xmlns="http://www.w3.org/2000/svg" xmlns:xlink="http://www.w3.org/1999/xlink" x="0px" y="0px"
 viewBox="0 0 240 48" style="enable-background:new 0 0 240 48;" xml:space="preserve">
<style type="text/css">
.st0{clip-path:url(#SVGID_2_);}
.st1{fill:#FFB700;}
.st2{fill:#FFB701;}
</style>
<g>
<defs>
<rect id="SVGID_1_" x="-120" y="-156.1" width="480" height="360.2"/>
</defs>
<clipPath id="SVGID_2_">
<use xlink:href="#SVGID_1_"  style="overflow:visible;"/>
</clipPath>
<g class="st0">
<path class="st1" d="M144.7,17.6c-5.5-2.5-10.2-4.9-15-6.8c-3.5-1.4-7.1-2.7-10.8-3.6c-3.4-0.9-6.9-1.5-10.3-1.7
c-7.2-0.5-14.4-0.9-21.6-0.9c-5.2,0.1-10.5,0.8-15.7,1.7c-4,0.6-8,1.7-11.9,2.7c-1.9,0.5-3.7,1.2-5.5,1.9
c-0.4,0.1-0.9,0.5-0.9,0.8c0,0.1-0.1,0.9,0.7,1.4c1.5,1.1,10.5,5.4,10.5,5.4s-4-1.2-8.4-2.1c-3.9-0.8-8.2-1.4-9.6-1.5
c-3.5-0.4-6.9-0.1-7.7-0.1c-3.1,0-9.7,0.8-9.7,0.8l-1-0.5c0,0,29.7-10.5,45.8-12.9c13.7-2.1,33.9-2.6,54.2,3.1s28,11.9,28,11.9
s9.6-0.8,19-0.9c13.8-0.1,24.9,2.1,28.7,2.7c2.5,0.3,13.3,2.6,22.1,5.1c5.1,1.4,9.2,3.4,10.4,3.8c2.5,0.8,4.1,2.2,4.1,2.2
s-6.4-1.9-8.8-2.5c-2.2-0.6-4.5-1-6.8-1.4c-4.1-0.7-15.8-2.8-36.6-3.7c-18.5-0.9-39,1.4-45,1.4c-14.4,0-53.9-5.4-54.1-5.5
c0.3-0.1,8,0.2,11.7,0.3c8.9,0.1,18.1,0.5,27,0.3c5.3-0.1,10.6-0.6,15.9-0.9C143.4,17.8,143.6,17.8,144.7,17.6"/>
<path class="st1" d="M0.1,38.8c-0.4-2.4-0.1-5.3,1.3-8.2c1.1-2.4,1.9-5.2,1.7-7.8c-0.1-2.7,1.2-2.9,3-3.2
c3.5-0.5,7.1-0.9,10.6-1.2c2-0.2,10.6-1.3,19.3-1.3c8.7,0.1,17.4,1.3,18.8,1.6c8.2,1.7,18,4,21.2,4.9c3.1,0.8,6.9,2.1,6.9,2.1
s-12.9-2-15.9-2.3c-1.2-0.1-15.7-1.8-28.4-1.9c-9.8-0.1-18.4,1.3-20,1.4c-3,0.2-5.9,0.7-8.7,1c1.9,1.4,3.9,2.9,5.7,4.3
C10.4,31.7,5.2,35.3,0.1,38.8"/>
<path class="st1" d="M122.3,47.9c-3.4,0-6.3,0.2-9.2-0.1c-0.6-0.1-1.2-1.7-1.4-2.7c-0.3-1.2-0.6-1.8-2-1.8
c-2.6,0.1-5.3-0.1-7.9,0.1c-0.5,0-1.1,1.5-1.3,2.3c-0.1,0.6,0.4,1.4,0.6,2.2c-2.4,0-4.7,0-7,0c-0.5,0-0.5-0.6-0.2-0.8
c4.3-5.6,8.7-11.1,13.1-16.7c0.1-0.2,0.3-0.5,0.2-0.6c-1.2-1.9,0.1-1.8,1.3-1.8c1.9,0,3.6,0,5.6,0c1.4-0.1,2.4,0.1,2.8,1.8
c0.9,3.8,2.1,7.5,3.2,11.2C120.8,43.2,121.5,45.4,122.3,47.9 M109.9,39.1c-0.5-1.6-1-3.2-1.5-4.9c-1.3,1.7-2.4,3.2-3.7,4.9H109.9z
"/>
<path class="st1" d="M72.4,47.9c-3.4,0-6.3,0.2-9.2-0.1C62.6,47.7,62,46,61.8,45c-0.3-1.2-0.6-1.8-2-1.8c-2.6,0.1-5.3-0.1-7.9,0.1
c-0.5,0-1.1,1.5-1.3,2.3c-0.1,0.6,0.4,1.4,0.6,2.2c-2.4,0-4.7,0-7,0c-0.5,0-0.5-0.6-0.2-0.8c4.3-5.6,8.7-11.1,13.1-16.7
c0.1-0.2,0.3-0.5,0.2-0.6c-1.2-1.9,0.1-1.8,1.3-1.8c1.9,0,3.6,0,5.6,0c1.4-0.1,2.4,0.1,2.8,1.8c0.9,3.8,2.1,7.5,3.2,11.2
C70.8,43.2,71.6,45.4,72.4,47.9 M60,39.1c-0.5-1.6-1-3.2-1.5-4.9c-1.3,1.7-2.4,3.2-3.7,4.9H60z"/>
<path class="st1" d="M185.5,47.9c-3.4,0-6.3,0.2-9.2-0.1c-0.6-0.1-1.2-1.7-1.4-2.7c-0.3-1.2-0.6-1.8-2-1.8
c-2.6,0.1-5.3-0.1-7.9,0.1c-0.5,0-1.1,1.5-1.3,2.3c-0.1,0.6,0.4,1.4,0.6,2.2c-2.4,0-4.7,0-7,0c-0.5,0-0.5-0.6-0.2-0.8
c4.3-5.6,8.7-11.1,13.1-16.7c0.1-0.2,0.3-0.5,0.2-0.6c-1.2-1.9,0.1-1.8,1.3-1.8c1.9,0,3.6,0,5.6,0c1.4-0.1,2.4,0.1,2.8,1.8
c0.9,3.8,2.1,7.5,3.2,11.2C184,43.2,184.7,45.4,185.5,47.9 M173.1,39.1c-0.5-1.6-1-3.2-1.5-4.9c-1.3,1.7-2.4,3.2-3.7,4.9H173.1z"
/>
<path class="st1" d="M155,27.9c2.7-0.2,1.7,1.9,1.5,3c-0.1,0.5-0.5,1-1.8,1s-8,0.1-9.8,0.1c-1.8,0-2.2,0.9-2.4,2.4
c0-0.1-1.4,7.2-1.4,8.3c0,1,0.7,1.1,1.1,1.1c4,0.1,8,0,11.9,0.1c0.2,0,1.1-0.2,1.2,0.5c0,0.2-0.4,2.4-1,3.1
c-0.6,0.6,0.2,0.6-3.7,0.6c-3.9,0-8.9,0-13.2,0c-4.3,0-5.8-0.7-5.4-3.5c2-12.5,1.4-9.3,2-12.5c0.5-2.7,1.5-3.1,2.8-3.7
c0.1,0,1-0.3,2.3-0.4C141.8,27.8,152.2,28.1,155,27.9"/>
<path class="st1" d="M75.4,28.1c0.5-0.1,5.8-0.1,8.1-0.2c1.6-0.1,2.5,0.1,2.1,2.1c-0.8,3.7-1.5,7.5-2.1,11.3
c-0.2,1.3-1.2,2.9,1.8,2.9c3.1,0,5.1-0.1,7.2,0c0.4,0,0.3,0.4,0.3,0.5c-0.3,1.1-0.2,3.3-1.2,3.3s-16.6,0-17.2,0
c-0.7,0-0.7-0.6-0.7-0.8c0.5-3.4,1.2-6.7,1.6-10.1c0.2-1.4,0.7-4.1,0.7-6C76,29.3,75.5,28.4,75.4,28.1"/>
<path class="st2" d="M196,47.4c0,0,0,0.6-0.5,0.6c-2.6,0-5.2,0-7.8,0c-0.5,0-0.8,0-0.8-0.5c0-0.3,3.2-13.4,3.5-16.9
c0-0.5,0-0.7-0.6-1.3c-0.6-0.6-0.9-1-0.8-1.2c0-0.1,0.1-0.1,0.2-0.1c0.2,0,0.5,0,0.7,0h10.3c3.4,0,6.8,0,10.2,0
c2.4,0,3,0.4,3.4,1.3c0.4,1.1,0.5,3.2,0.2,5.7c-0.1,0.6-0.6,2.4-1.6,3.5c-1.1,1.2-2.5,1.9-2.7,2c-0.1,0.1,0,0.4,0,0.4
s2.1,4.8,2.6,6.5c0.1,0.3-0.2,0.6-0.5,0.7c-0.3,0.1-5.8,0-8.5,0c-0.2,0-0.3,0-0.5,0c-0.1,0-0.2-0.1-0.2-0.2l-1.9-5.2
c0-0.2-0.1-0.3-0.3-0.3h-3.3c-0.2,0-0.3,0.1-0.3,0.3L196,47.4z M200.6,37.7L200.6,37.7c0.7,0,1.5,0,2.2,0c0.3,0,0.5,0,0.8-0.2
c0.5-0.5,1.4-5,1.1-5.3c-0.3-0.3-1-0.2-1.2-0.2c-1.3,0-4.2,0-4.3,0c-0.2,0-0.3,0.1-0.3,0.3c0,0.1-1,4.9-1,5.1
c0,0.2,0.1,0.3,0.3,0.3C199,37.7,199.8,37.7,200.6,37.7"/>
<path class="st2" d="M17,47.3c-0.2,0.4,0,0.6,0.4,0.6c0.1,0,0.2,0,0.3,0h7.7h0.1c0.3,0,0.4-0.1,0.4-0.4l1.3-7.2
c0-0.2,0.1-0.3,0.4-0.3h6.1c0.2,0,0.3,0.1,0.3,0.3l-1.2,7.2c0,0,0,0.3,0.1,0.4c0.1,0,0.2,0,0.4,0h7.6c0.1,0,0.3,0,0.4,0
c0.1,0,0.2-0.1,0.3-0.2c0,0,0-0.1,0.1-0.2L45,29c0.4-0.5,0.1-1-0.5-1.1c-0.2-0.1-0.5,0-0.7-0.1c-1,0-2.1,0-3.1,0
c-1.2,0-2.4,0-3.6,0c-0.8,0-0.9,0.2-1,1l-1.3,6.6c0,0.5-0.2,0.5-0.5,0.5c-1.7,0-3.5,0-5.2,0c-1.4,0-1.3,0.1-1-1
c0.2-1.1,1.3-6.2,1.3-6.2c0.1-0.5,0.2-0.6-0.1-0.7c-0.3-0.2-0.7-0.1-1-0.1h-4.1h-1.9c-0.8,0-1.7,0-2.5,0c-0.6,0-0.9,0.2-0.5,0.5
s0.6,0.5,0.8,1C20.2,30,17.3,46.8,17,47.3"/>
</g>
</g>
</svg>